<?xml version="1.0" encoding="UTF-8" standalone="no"?>
<svg xmlns="http://www.w3.org/2000/svg" height="60px" width="336px" version="1.1" xmlns:xlink="http://www.w3.org/1999/xlink" viewBox="0 0 336 60"><!-- Generator: Sketch 41.2 (35397) - http://www.bohemiancoding.com/sketch -->
 <title>LOOOOOGO</title>
 <desc>Created with Sketch.</desc>
 <g id="Page-1" fill-rule="evenodd" fill="none">
  <g id="Artboard" transform="translate(-7 -5)">
   <g id="LOOOOOGO" transform="translate(7 5)">
    <path id="Combined-Shape-Copy-42" fill="#69C375" d="m9.6756 37.225l-0.6257-15.662 20.412-10.866 20.315 10.862-1.581 15.708-10.168 0.014v7.958l17.933-0.016 2.821-28.756-29.32-16.467-29.462 16.44 1.7523 28.784 18.191-0.017v-7.934c-2.696-0.008-10.267-0.048-10.267-0.048zm12.473 0.099l9.647 8.889-0.082 12.943-9.565-13.186v-8.646z"/>
    <path id="imóveis" fill="#fff" d="m191.14 43.782v-24.203h2.94v24.203h-2.94zm-0.15-29.483v-4.158h3.24v4.158h-3.24zm10.47 29.483h-2.94v-24.203h2.94v3.645h0.1c0.75-1.402 1.83-2.469 3.23-3.201 1.41-0.732 2.95-1.098 4.61-1.098 1.18 0 2.18 0.125 2.99 0.374 0.82 0.249 1.51 0.584 2.09 1.004 0.57 0.421 1.04 0.912 1.42 1.472 0.37 0.561 0.69 1.168 0.95 1.822 0.85-1.588 1.99-2.764 3.41-3.527s3.05-1.145 4.88-1.145c1.73 0 3.11 0.273 4.14 0.818s1.82 1.261 2.38 2.149c0.55 0.888 0.92 1.908 1.1 3.06 0.18 1.153 0.27 2.337 0.27 3.551v15.279h-2.94v-16.727c0-1.744-0.39-3.115-1.15-4.112-0.77-0.996-2.2-1.495-4.29-1.495-1.08 0-2.12 0.226-3.12 0.678-0.99 0.451-1.87 1.144-2.62 2.079-0.32 0.405-0.59 0.88-0.81 1.425-0.21 0.545-0.38 1.113-0.51 1.705s-0.22 1.184-0.27 1.776-0.07 1.137-0.07 1.635v13.036h-2.95v-16.727c0-1.744-0.38-3.115-1.15-4.112-0.77-0.996-2.2-1.495-4.29-1.495-1.08 0-2.11 0.226-3.11 0.678-1 0.451-1.87 1.144-2.62 2.079-0.33 0.405-0.6 0.88-0.81 1.425s-0.39 1.113-0.52 1.705-0.22 1.184-0.27 1.776c-0.04 0.592-0.07 1.137-0.07 1.635v13.036zm45.72 0.654c-1.64-0.031-3.16-0.311-4.59-0.841-1.42-0.529-2.66-1.324-3.72-2.383s-1.91-2.383-2.53-3.971c-0.62-1.589-0.93-3.442-0.93-5.56 0-1.776 0.25-3.435 0.74-4.976 0.49-1.542 1.22-2.89 2.2-4.042 0.98-1.153 2.21-2.064 3.68-2.733 1.47-0.67 3.19-1.005 5.15-1.005 1.99 0 3.72 0.335 5.19 1.005 1.47 0.669 2.7 1.573 3.68 2.71s1.71 2.484 2.18 4.041c0.48 1.558 0.71 3.224 0.71 5 0 1.931-0.28 3.675-0.83 5.233-0.56 1.557-1.35 2.896-2.38 4.018-1.03 1.121-2.27 1.986-3.72 2.593-1.46 0.607-3.07 0.911-4.83 0.911zm8.63-12.755c0-1.433-0.17-2.773-0.5-4.019-0.32-1.246-0.83-2.328-1.51-3.247-0.69-0.919-1.57-1.643-2.65-2.173-1.08-0.529-2.4-0.794-3.97-0.794-1.54 0-2.85 0.288-3.95 0.865-1.09 0.576-1.98 1.339-2.67 2.289s-1.19 2.04-1.52 3.271c-0.33 1.23-0.49 2.499-0.49 3.808 0 1.495 0.19 2.873 0.56 4.135 0.38 1.261 0.93 2.344 1.65 3.247 0.71 0.903 1.61 1.604 2.69 2.102 1.08 0.499 2.32 0.748 3.73 0.748 1.53 0 2.85-0.288 3.94-0.864 1.1-0.577 1.99-1.348 2.68-2.313 0.68-0.966 1.19-2.056 1.51-3.271 0.33-1.215 0.5-2.476 0.5-3.784zm-11.43-14.718l5.44-6.495h3.78l-6.72 6.495h-2.5zm14.59 2.616h3.19l8.23 20.745 8.24-20.745h3.19l-9.86 24.203h-3.28l-9.71-24.203zm42.92 10.42c0-1.184-0.17-2.298-0.51-3.341-0.34-1.044-0.85-1.947-1.52-2.71s-1.51-1.371-2.52-1.822c-1.02-0.452-2.18-0.678-3.49-0.678-1.3 0-2.45 0.234-3.45 0.701s-1.85 1.09-2.55 1.869-1.27 1.682-1.69 2.71c-0.43 1.028-0.7 2.118-0.83 3.271h16.56zm-16.56 2.336c0 1.308 0.17 2.546 0.53 3.714s0.89 2.181 1.6 3.037c0.7 0.857 1.59 1.542 2.67 2.056s2.32 0.771 3.72 0.771c1.93 0 3.58-0.483 4.96-1.448 1.37-0.966 2.28-2.337 2.74-4.112h3.29c-0.36 1.152-0.84 2.219-1.43 3.2-0.58 0.982-1.32 1.838-2.2 2.57s-1.93 1.301-3.14 1.706-2.61 0.607-4.22 0.607c-2.02 0-3.77-0.327-5.24-0.981s-2.68-1.55-3.63-2.687-1.65-2.476-2.11-4.018c-0.45-1.542-0.68-3.2-0.68-4.976 0-1.775 0.27-3.442 0.81-4.999 0.54-1.558 1.3-2.921 2.3-4.089s2.21-2.087 3.65-2.756c1.44-0.67 3.07-1.005 4.9-1.005 3.5 0 6.25 1.145 8.24 3.434 1.99 2.29 2.97 5.615 2.94 9.976h-19.7zm23.21 11.447v-24.203h2.94v24.203h-2.94zm-0.15-29.483v-4.158h3.24v4.158h-3.24zm9.64 21.914c0.46 2.087 1.28 3.559 2.48 4.415 1.19 0.857 2.9 1.285 5.12 1.285 1.08 0 2.01-0.125 2.79-0.374 0.79-0.249 1.43-0.584 1.94-1.004 0.51-0.421 0.89-0.896 1.15-1.425 0.26-0.53 0.39-1.091 0.39-1.682 0-1.184-0.4-2.064-1.2-2.64-0.8-0.577-1.8-1.028-3.01-1.355s-2.52-0.608-3.92-0.841c-1.41-0.234-2.72-0.584-3.92-1.052-1.21-0.467-2.22-1.137-3.02-2.009s-1.2-2.102-1.2-3.691c0-2.025 0.78-3.683 2.33-4.976s3.75-1.939 6.59-1.939c2.75 0 4.98 0.584 6.69 1.752 1.72 1.168 2.76 3.123 3.12 5.864h-2.99c-0.27-1.869-1.01-3.185-2.24-3.948-1.22-0.763-2.76-1.145-4.63-1.145-1.86 0-3.28 0.382-4.26 1.145s-1.47 1.768-1.47 3.014c0 1.09 0.4 1.923 1.2 2.499s1.8 1.044 3.01 1.402 2.52 0.677 3.92 0.958c1.41 0.28 2.72 0.677 3.93 1.191s2.21 1.207 3.01 2.079c0.8 0.873 1.2 2.087 1.2 3.645 0 1.152-0.26 2.172-0.78 3.06-0.53 0.888-1.24 1.628-2.16 2.22-0.91 0.591-2 1.035-3.26 1.331s-2.64 0.444-4.14 0.444-2.84-0.21-4-0.631c-1.16-0.42-2.15-1.004-2.96-1.752-0.82-0.747-1.46-1.62-1.91-2.616-0.46-0.997-0.72-2.072-0.79-3.224h2.99z"/>
    <path id="storia" fill="#fff" d="m75.37 35.19c0.143 1.156 0.454 1.977 0.933 2.464 0.846 0.867 2.41 1.3 4.692 1.3 1.34 0 2.405-0.19 3.195-0.57s1.185-0.951 1.185-1.711c0-0.73-0.319-1.285-0.958-1.665-0.638-0.381-3.008-1.035-7.109-1.962-2.952-0.7-5.034-1.575-6.247-2.624-1.213-1.034-1.819-2.525-1.819-4.472 0-2.296 0.946-4.27 2.837-5.92 1.89-1.65 4.551-2.475 7.982-2.475 3.255 0 5.908 0.619 7.959 1.859 2.05 1.24 3.227 3.38 3.53 6.422h-6.821c-0.096-0.836-0.344-1.498-0.742-1.985-0.75-0.882-2.027-1.323-3.83-1.323-1.484 0-2.541 0.221-3.172 0.662-0.63 0.441-0.945 0.958-0.945 1.551 0 0.745 0.335 1.285 1.005 1.62 0.67 0.35 3.04 0.951 7.109 1.802 2.713 0.609 4.747 1.529 6.104 2.761 1.34 1.247 2.01 2.806 2.01 4.677 0 2.464-0.961 4.475-2.884 6.034s-4.895 2.339-8.916 2.339c-4.101 0-7.129-0.826-9.084-2.476-1.954-1.65-2.932-3.753-2.932-6.308h6.918zm16.588-12.069v-4.631h3.638v-6.935h6.754v6.935h4.23v4.631h-4.23v13.141c0 1.019 0.13 1.654 0.4 1.905s1.1 0.377 2.49 0.377c0.21 0 0.43-0.004 0.66-0.012 0.23-0.007 0.46-0.019 0.68-0.034v4.86l-3.23 0.114c-3.22 0.106-5.424-0.426-6.605-1.597-0.766-0.746-1.149-1.894-1.149-3.445v-15.309h-3.638zm32.622 13.392c1.07-1.353 1.61-3.277 1.61-5.772 0-2.494-0.54-4.414-1.61-5.76s-2.6-2.019-4.59-2.019c-2 0-3.53 0.673-4.61 2.019s-1.62 3.266-1.62 5.76c0 2.495 0.54 4.419 1.62 5.772 1.08 1.354 2.61 2.031 4.61 2.031 1.99 0 3.52-0.677 4.59-2.031zm5.46 3.594c-2.2 2.593-5.54 3.889-10.03 3.889-4.48 0-7.83-1.296-10.03-3.889-2.2-2.594-3.3-5.715-3.3-9.366 0-3.589 1.1-6.699 3.3-9.331 2.2-2.631 5.55-3.947 10.03-3.947 4.49 0 7.83 1.316 10.03 3.947 2.2 2.632 3.3 5.742 3.3 9.331 0 3.651-1.1 6.772-3.3 9.366zm20-22.427c0.09 0.008 0.28 0.019 0.59 0.034v6.662c-0.43-0.045-0.82-0.076-1.15-0.091-0.34-0.015-0.61-0.023-0.82-0.023-2.74 0-4.58 0.852-5.53 2.555-0.52 0.958-0.78 2.434-0.78 4.426v11.886h-6.87v-24.867h6.51v4.335c1.05-1.658 1.97-2.791 2.75-3.4 1.28-1.019 2.93-1.528 4.98-1.528 0.12 0 0.23 0.004 0.32 0.011zm8.92-2.384h-6.92v-6h6.92v6zm-6.92 2.966h6.92v24.867h-6.92v-24.867zm25.23 12.776c-0.43 0.258-0.87 0.468-1.31 0.627-0.43 0.16-1.04 0.308-1.8 0.445l-1.53 0.274c-1.44 0.243-2.47 0.54-3.09 0.89-1.06 0.593-1.58 1.513-1.58 2.76 0 1.11 0.32 1.913 0.97 2.407 0.64 0.494 1.43 0.742 2.36 0.742 1.46 0 2.82-0.411 4.05-1.232 1.24-0.822 1.88-2.32 1.93-4.495v-2.418zm-4.14-3.034c1.26-0.152 2.16-0.343 2.7-0.571 0.98-0.395 1.46-1.011 1.46-1.848 0-1.019-0.37-1.722-1.11-2.11s-1.83-0.582-3.27-0.582c-1.61 0-2.75 0.38-3.42 1.141-0.48 0.563-0.8 1.323-0.96 2.281h-6.58c0.14-2.175 0.78-3.962 1.92-5.361 1.8-2.19 4.89-3.285 9.28-3.285 2.86 0 5.4 0.54 7.61 1.62 2.22 1.079 3.33 3.118 3.33 6.114v11.407c0 0.791 0.02 1.749 0.05 2.874 0.05 0.852 0.18 1.43 0.41 1.734 0.22 0.305 0.55 0.555 1 0.753v0.958h-7.42c-0.21-0.502-0.35-0.973-0.43-1.414s-0.14-0.943-0.19-1.506c-0.94 0.974-2.03 1.803-3.26 2.487-1.46 0.806-3.12 1.209-4.98 1.209-2.36 0-4.31-0.643-5.85-1.928s-2.31-3.106-2.31-5.464c0-3.057 1.24-5.27 3.71-6.639 1.36-0.745 3.35-1.277 5.99-1.597l2.32-0.273z"/>
   </g>
  </g>
 </g>
</svg>
