<svg width="48" height="48" viewBox="0 0 48 48" xmlns="http://www.w3.org/2000/svg" xmlns:xlink="http://www.w3.org/1999/xlink"><defs><path id="a" d="M47.755 47.81V.056H0V47.81h47.755z"/></defs><g fill="none" fill-rule="evenodd"><g><mask id="b" fill="#fff"><use xlink:href="#a"/></mask><path d="M47.755 23.934c0 13.186-10.69 23.877-23.88 23.877C10.69 47.81 0 37.12 0 23.935 0 10.746 10.688.054 23.876.054s23.88 10.692 23.88 23.88" fill="#FEFEFE" mask="url(#b)"/></g><path d="M20.44 12.504c-1.017 0-1.412.68-1.296 1.705l.194 11.303c.114 1.022.696 1.457 1.68 1.703l6.117-.066c.97.066 1.303.03 1.488-.984l.064-1.965c-.018-.9-.5-1.052-1.42-1.046l-2.268-.024c-1.144.06-1.682-.314-1.682-1.114l-.066-7.872c0-1.03-.277-1.64-1.296-1.64H20.44z" fill="#85D43E"/><path d="M42.425 31.277l-5.52-8.356 4.23-6.29c.498-.74.384-1.56-.248-1.828-.634-.264-1.627.066-2.208.742l-3.762 4.368-2.6-3.94c-.492-.744-1.566-1.133-2.388-.866-.82.266-1.223 1.16-.89 1.99l3.028 6.21-4.352 4.975c-.58.677-.67 1.846-.196 2.6l1.087 1.74c.473.756 1.268.767 1.762.03l3.655-5.447 2.967 5.497c.334.83 1.305 1.31 2.16 1.077l2.616-.72c.853-.238 1.148-1.038.657-1.78" fill="#F78323"/><path d="M11.033 15.447c-4.063 0-7.355 3.786-7.355 8.457 0 4.674 3.292 8.46 7.355 8.46 4.06 0 7.356-3.786 7.356-8.46 0-4.67-3.296-8.457-7.357-8.457m0 14.21c-1.89 0-3.424-2.575-3.424-5.753 0-3.174 1.533-5.747 3.423-5.747 1.89 0 3.424 2.573 3.424 5.747 0 3.178-1.533 5.753-3.424 5.753" fill="#9027B0"/></g></svg>
